<svg xmlns="http://www.w3.org/2000/svg" version="1.1" viewBox="-5.0 -10.0 110.0 135.0">
 <path d="m66.531 50.355c-0.58594-0.58984-1.3008-1.0352-2.0859-1.3047 2.0078-0.67188 3.8359-1.8008 5.332-3.3008l1.6562-1.6562c0.29297-0.29297 0.45703-0.6875 0.45703-1.1055 0-0.41406-0.16406-0.80859-0.45703-1.1016l-4.3594-4.3594v-0.003906c0.50781-2.3828-0.22266-4.8633-1.9492-6.5859-1.7227-1.7227-4.2031-2.457-6.5859-1.9453l-3.2539-3.25-1.1055-1.1055h0.003906c-0.60938-0.61328-1.6016-0.61328-2.2109 0l-1.6562 1.6562c-1.5 1.5-2.6289 3.3281-3.2969 5.3398-0.26953-0.78906-0.71484-1.5078-1.3086-2.0977l-22.062-22.066c-1.2773-1.2812-3.1094-1.8477-4.8867-1.5078-1.1445 0.23437-2.1836 0.8125-2.9922 1.6523l-9.9297 9.9297c-1.0234 1.0234-1.6016 2.418-1.6016 3.8672 0 1.4492 0.57812 2.8398 1.6016 3.8672l22.066 22.062c0.64453 0.64844 1.4453 1.125 2.3242 1.3828-0.26172 1.1758-0.125 2.4062 0.37891 3.5-0.74219 2.0117-0.25 4.2734 1.2656 5.793l6.0469 6.0469c0.78906 0.82422 1.8047 1.3906 2.9141 1.6328 1.0078 0.19922 2.0469 0.11719 3.0117-0.23437 0.72266 0.33594 1.5117 0.51172 2.3125 0.50781 0.39844 0 0.79688-0.042969 1.1875-0.12891 0.25781 0.87891 0.73047 1.6758 1.3789 2.3242l21.922 21.922c0.80469 0.83984 1.8477 1.4141 2.9883 1.6484 1.7773 0.33594 3.6094-0.22656 4.8867-1.5078l10.074-10.074c1.2812-1.2773 1.8477-3.1094 1.5078-4.8867-0.23438-1.1406-0.80859-2.1836-1.6523-2.9883zm-4.7148-16.105c0.76172 0.76562 0.94922 1.9375 0.46484 2.9023l-3.3633-3.3633c0.96484-0.48828 2.1328-0.30078 2.8984 0.46094zm-8.7148-4.0664 9.2656 9.2656 3.5195 3.5156c-1.7148 1.4414-3.9023 2.1953-6.1406 2.1172-0.039063-0.042969-0.078125-0.089843-0.12109-0.13281l-8.6406-8.6367h0.003906c-0.074219-2.2344 0.67969-4.4141 2.1133-6.1289zm-21.883 13.844-22.062-22.066c-0.30469-0.30469-0.30469-0.79688 0-1.1055l10.074-10.074-0.003907 0.003906c0.30859-0.30469 0.80078-0.30469 1.1055 0l22.062 22.062h0.003907c0.30469 0.30859 0.30469 0.80078 0 1.1055l-10.074 10.074c-0.30859 0.29297-0.79688 0.29297-1.1055 0zm10.586-3.6719-3.0781 3.0781-1.8008-1.8008 3.0781-3.0781zm0.70312 20.523c-0.31641 0.3125-0.82812 0.3125-1.1445 0l-6.1719-6.1719v-0.003906c-0.31641-0.31641-0.31641-0.82422 0-1.1406l0.35547-0.35547 7.3164 7.3164zm4.207 0.17578h-0.003906c-0.14453 0.14844-0.34375 0.23047-0.55078 0.23047-0.20703 0-0.40625-0.082031-0.55469-0.23047l-10.594-10.594c-0.30469-0.30469-0.30469-0.80078 0-1.1055l12.715-12.715c0.14844-0.14453 0.34766-0.23047 0.55469-0.23047s0.40625 0.085938 0.55078 0.23047l10.594 10.594v0.003906c0.14844 0.14453 0.23047 0.34375 0.23047 0.55078 0 0.20703-0.082031 0.40625-0.23047 0.55078zm10.797-4.9922-3.0781 3.0781-1.7969-1.8008 3.0781-3.0781zm27.77 20.777-10.074 10.074 0.003907-0.003906c-0.14844 0.14844-0.34375 0.23047-0.55078 0.23047-0.21094 0-0.40625-0.082031-0.55469-0.23047l-22.062-22.062c-0.30469-0.30469-0.30469-0.80078 0-1.1055l10.074-10.074h-0.003907c0.30469-0.30078 0.80078-0.30078 1.1055 0l22.062 22.062v0.003906c0.14844 0.14453 0.23047 0.34375 0.23047 0.55078 0 0.20703-0.082031 0.40625-0.23047 0.55469zm-5.2734-1.7031-2.6992 2.6992 1.9258 1.9258-1.1055 1.1055-1.9219-1.9258-2.6992 2.6992-1.1055-1.1055 2.6992-2.6992-6.3281-6.3281-2.6992 2.6992-1.1055-1.1055 2.6992-2.6992-6.3281-6.3281-2.6992 2.6992-1.1055-1.1055 2.6992-2.6992-2.4688-2.4688 1.1055-1.1055 2.4688 2.4648 2.6992-2.6992 1.1055 1.1055-2.6992 2.6992 6.3281 6.3281 2.6992-2.6992 1.1055 1.1055-2.6992 2.6992 6.3281 6.3281 2.6992-2.6953zm-43.27-43.27-2.6953 2.6992 2.4688 2.4688-1.1055 1.1055-2.4688-2.4688-2.6992 2.6992-1.1055-1.1055 2.6992-2.6992-6.3242-6.3281-2.6992 2.6992-1.1055-1.1055 2.6992-2.6992-6.3281-6.3281-2.6992 2.7031-1.1055-1.1055 2.6992-2.6992-1.9258-1.9258 1.1055-1.1055 1.9258 1.9258 2.6992-2.6992 1.1055 1.1055-2.7031 2.6992 6.332 6.3281 2.6992-2.6992 1.1055 1.1055-2.7031 2.6953 6.3281 6.3281 2.6992-2.6992z"/>
<text x="0.0" y="117.5" font-size="5.0" font-weight="bold" font-family="Arbeit Regular, Helvetica, Arial-Unicode, Arial, Sans-serif" fill="#000000">Created by Valone</text><text x="0.0" y="122.5" font-size="5.0" font-weight="bold" font-family="Arbeit Regular, Helvetica, Arial-Unicode, Arial, Sans-serif" fill="#000000">from Noun Project</text></svg>